#N canvas 179 327 535 310 10;
#N canvas 583 888 150 192 guts 1;
#N canvas 72 96 1848 984 sensors 1;
#X obj -1379 355 unpack f f f;
#X obj -1314 476 loadbang;
#X obj -1390 441 expr sqrt($f1*$f1+$f2*$f2+$f3*$f3);
#X obj -1389 704 t b b;
#X obj -1036 780 vline~;
#X obj -1326 1003 *~;
#X obj -1392 1212 dac~;
#X obj -1388 629 bng 15 250 50 0 empty empty empty 17 7 0 10 -262144
-1 -1;
#X obj -1389 558 change;
#X msg -1388 665 1;
#X obj -1389 593 route 1 0;
#X obj -1389 521 > 0;
#X obj -1390 1170 reverbA~;
#X obj -1401 1077 loadbang;
#X obj -1341 780 sel 0 1 2 3 4 5 6;
#N canvas 65 87 1855 1002 partials 0;
#X obj 51 107 osc~;
#X obj 91 106 osc~;
#X obj 132 104 osc~;
#X obj 175 104 osc~;
#X obj 219 103 osc~;
#X obj 146 271 outlet~;
#X text 371 59 frequency ratios for the harmonics;
#X text 385 181 relative amplitude for the harmonics;
#X text 238 279 add all the compontents of the signal;
#X obj 11 59 * 0.204;
#X obj 83 56 * 0.5392;
#X obj 153 56 * 1;
#X obj 219 59 * 1.5779;
#X obj 294 59 * 2.2378;
#X obj 27 181 *~ 0.03935;
#X obj 99 178 *~ 0.09245;
#X obj 175 179 *~ 0.5;
#X obj 216 179 *~ 0.0068;
#X obj 291 181 *~ 0.01375;
#X obj 157 14 inlet;
#X connect 0 0 14 0;
#X connect 1 0 15 0;
#X connect 2 0 16 0;
#X connect 3 0 17 0;
#X connect 4 0 18 0;
#X connect 9 0 0 0;
#X connect 10 0 1 0;
#X connect 11 0 2 0;
#X connect 12 0 3 0;
#X connect 13 0 4 0;
#X connect 14 0 5 0;
#X connect 15 0 5 0;
#X connect 16 0 5 0;
#X connect 17 0 5 0;
#X connect 18 0 5 0;
#X connect 19 0 9 0;
#X connect 19 0 10 0;
#X connect 19 0 11 0;
#X connect 19 0 12 0;
#X connect 19 0 13 0;
#X restore -1318 953 pd partials;
#X msg -1394 1126 127;
#X msg -1036 739 1 20 \, 1 \, 0 1600;
#X obj -1322 1070 +~;
#X obj -910 1022 delread4~ \$0-sammap;
#X obj -904 965 loadbang;
#X obj -1079 1147 delwrite~ \$0-sammap 2000;
#X msg -905 997 1000;
#X obj -921 1076 lop~ 800;
#X obj -895 1047 *~ 0.999;
#X text -1302 594 Send trigger if the signal is above a treshold value
;
#X text -526 825 chose a MIDI note at random in the scale from the
koshi chime;
#X text -1250 904 convert the MIDI note to a frequency value;
#X text -1228 941 create a constant tone with the spectrum of a tubular
bell and a fundamental pitch given by the input frequency;
#X text -823 993 delay time;
#X text -894 1147 record sample for the delay;
#X text -1290 1069 add input sound and feedback delay;
#X text -1345 1221 digital to analog converter for audio output;
#X text -1292 1013 multiply the constant tone with the envelope;
#X text -1322 1177 reverb effect;
#X text -814 1047 feedback 0 - 1;
#X text -1367 1127 room size for the reverb effect 0 - 127;
#X text -847 1077 low pass filter with cut off frequency of 800 Hz
;
#X text -908 735 create the envelope of the sound (from 0 to 1 in 20
ms then from 1 to 0 in 1600 ms);
#X text -1302 594 Send trigger if the signal is above a treshold value
;
#X text -1302 594 Send trigger if the signal is above a treshold value
;
#X text -1306 706 for each triggered event;
#X text -1278 504 acceleration threshold value (m/s2);
#X obj -1379 70 r sys-snd;
#X obj -1379 119 route accel;
#X obj -1379 96 list trim;
#N canvas 307 526 450 300 speedlim 0;
#X obj 204 46 inlet;
#X obj 269 101 delay 50;
#X obj 204 104 spigot 1;
#X obj 204 127 t a b;
#X msg 269 121 1;
#X msg 270 142 0;
#X obj 204 186 outlet;
#X connect 0 0 2 0;
#X connect 1 0 4 0;
#X connect 2 0 3 0;
#X connect 3 0 6 0;
#X connect 3 1 1 0;
#X connect 3 1 5 0;
#X connect 4 0 2 1;
#X connect 5 0 2 1;
#X restore -1379 149 pd speedlim;
#X obj -773 268 s sys-rcv;
#X msg -908 124 stop;
#X obj -878 160 symbol;
#X msg -870 123 normal;
#X obj -926 72 r \$0-axmode-stop;
#X obj -871 95 r \$0-axmode-normal;
#X msg -878 183 accel \$1 \, gyro \$1 \, magn \$1;
#X obj -878 204 list prepend sensors;
#X obj -792 234 list trim;
#X obj -1487 1178 *~ 1;
#X obj -1600 1040 r \$0-audiotestvol;
#X obj -1600 1063 t f f;
#X obj -1600 1086 *;
#X obj -1600 1108 * 0.3;
#X obj -1305 904 mtof;
#X msg -1321 829 106;
#X msg -1242 827 111;
#X msg -1105 827 114;
#X msg -975 829 116;
#X msg -897 830 118;
#X msg -818 828 123;
#X msg -681 834 126;
#X msg -584 830 130;
#N canvas 65 50 1855 1030 no_repeat 0;
#X obj 136 26 inlet;
#X obj 213 101 loadbang;
#X msg 213 140 1;
#X obj 213 183 value old;
#X floatatom 213 238 5 0 0 0 - - -;
#X floatatom 111 237 5 0 0 0 - - -;
#X obj 111 305 expr $i1 == $i2;
#X obj 135 101 until;
#X obj 409 318 outlet;
#X obj 167 361 sel 0;
#X obj 135 140 t b b;
#X obj 136 62 bng 15 250 50 0 empty empty empty 17 7 0 10 -262144 -1
-1;
#X obj 111 184 random 8;
#X obj 407 24 inlet;
#X connect 0 0 11 0;
#X connect 1 0 2 0;
#X connect 2 0 3 0;
#X connect 3 0 4 0;
#X connect 4 0 6 1;
#X connect 4 0 8 0;
#X connect 5 0 3 0;
#X connect 5 0 6 0;
#X connect 6 0 9 0;
#X connect 7 0 10 0;
#X connect 9 0 7 1;
#X connect 10 0 12 0;
#X connect 10 1 3 0;
#X connect 11 0 7 0;
#X connect 12 0 5 0;
#X connect 13 0 12 1;
#X restore -1437 746 pd no_repeat;
#X text -1329 742 chose a random number between 0 and 7 without repetition
;
#X msg -1328 503 11;
#X text -1134 443 compute the module of the acceleration vector;
#X connect 0 0 2 0;
#X connect 0 1 2 1;
#X connect 0 2 2 2;
#X connect 1 0 72 0;
#X connect 2 0 11 0;
#X connect 3 0 17 0;
#X connect 3 1 70 0;
#X connect 4 0 5 1;
#X connect 5 0 18 0;
#X connect 7 0 9 0;
#X connect 8 0 10 0;
#X connect 9 0 3 0;
#X connect 10 0 7 0;
#X connect 11 0 8 0;
#X connect 12 0 56 0;
#X connect 13 0 16 0;
#X connect 14 0 62 0;
#X connect 14 1 63 0;
#X connect 14 2 64 0;
#X connect 14 3 65 0;
#X connect 14 4 66 0;
#X connect 14 5 67 0;
#X connect 14 6 68 0;
#X connect 14 7 69 0;
#X connect 15 0 5 0;
#X connect 16 0 12 1;
#X connect 17 0 4 0;
#X connect 18 0 21 0;
#X connect 18 0 12 0;
#X connect 19 0 24 0;
#X connect 20 0 22 0;
#X connect 22 0 19 0;
#X connect 23 0 18 1;
#X connect 24 0 23 0;
#X connect 43 0 45 0;
#X connect 44 0 46 0;
#X connect 45 0 44 0;
#X connect 46 0 0 0;
#X connect 48 0 49 0;
#X connect 49 0 53 0;
#X connect 50 0 49 0;
#X connect 51 0 48 0;
#X connect 52 0 50 0;
#X connect 53 0 54 0;
#X connect 54 0 55 0;
#X connect 55 0 47 0;
#X connect 56 0 6 0;
#X connect 56 0 6 1;
#X connect 57 0 58 0;
#X connect 58 0 59 0;
#X connect 58 1 59 1;
#X connect 59 0 60 0;
#X connect 60 0 56 1;
#X connect 61 0 15 0;
#X connect 62 0 61 0;
#X connect 63 0 61 0;
#X connect 64 0 61 0;
#X connect 65 0 61 0;
#X connect 66 0 61 0;
#X connect 67 0 61 0;
#X connect 68 0 61 0;
#X connect 69 0 61 0;
#X connect 70 0 14 0;
#X connect 72 0 11 1;
#X restore 32 47 pd sensors;
#X restore 375 263 pd guts;
#X obj 255 265 droidsystem sys;
#X obj 359 85 vsl 15 128 0 1 0 0 \$0-audiotestvol empty audio-volume
0 -9 0 10 -260097 -1 -1 0 1;
#X obj 141 60 bng 30 250 50 0 \$0-axmode-stop empty stop 0 -7 0 14
-191407 -1 -1;
#X obj 183 61 bng 30 250 50 0 \$0-axmode-normal empty play 0 -7 0 14
-4034 -1 -1;
